<?xml version="1.0" encoding="UTF-8" standalone="no"?>
<svg
   xmlns:svg="http://www.w3.org/2000/svg"
   xmlns="http://www.w3.org/2000/svg"
   viewBox="0 0 90.199992 105.1"
   version="1.1"
>
<style xmlns="http://www.w3.org/2000/svg" type="text/css">
	.st0{fill:#403F3E;}
	.st1{fill:#E2181B;}
	.st2{fill:#7FBECE;}
</style>
  <g
     transform="translate(-513.47143,-818.38363)">
    <g
       transform="translate(124.47143,568.68363)"
       >
        <g
           id="g3494">
          <polygon
             class="st1"
             points="424.7,287.1 415.4,287.1 415.4,302.6 423.1,294.7 432.2,294.7 "
          />
          <path
             class="st1"
             d="m 415.4,316.8 c 0,0 5.7,0 12.5,0 l 0,-4.8 -12.5,0 0,4.8 z"
          />
          <polygon
             class="st1"
             points="436.5,316.8 448.9,316.8 448.9,287.1 439.5,287.1 432.2,294.7 420.5,306.9 427.9,306.9 427.9,301.6 436.5,301.6 "
          />
      </g>
      <path
         class="st2"
         d="m 452.6,299.8 c 8.5,-3.9 12.7,-10.2 12.7,-18.7 0,-2.5 -0.4,-4.8 -1.2,-7 -0.8,-2.2 -2,-4.3 -3.5,-6.1 -1.5,-1.8 -3.3,-3.4 -5.3,-4.6 -2.3,-1.4 -5,-2.4 -8,-2.9 -3,-0.5 -8,-0.8 -12.1,-0.8 l -36.2,0 0,45 16.4,-17.7 9.3,0 7.5,7.6 7.3,-7.6 9.4,0 0,29.8 -26.9,28 0,0 13.2,0 c 4.5,0 8.4,-0.2 11.7,-0.7 3.3,-0.4 6.3,-1.2 8.9,-2.3 4.1,-1.8 7.4,-4.6 9.8,-8.4 2.4,-3.8 3.6,-8.1 3.6,-12.9 0,-10.2 -5.5,-17.1 -16.6,-20.7 z"
      />
    </g>
  </g>
</svg>
