<?xml version="1.0" standalone="no"?>
<!DOCTYPE svg PUBLIC "-//W3C//DTD SVG 20010904//EN"
 "http://www.w3.org/TR/2001/REC-SVG-20010904/DTD/svg10.dtd">
<svg version="1.0" xmlns="http://www.w3.org/2000/svg"
 width="64.000000pt" height="64.000000pt" viewBox="0 0 64.000000 64.000000"
 preserveAspectRatio="xMidYMid meet">
<metadata>
Created by potrace 1.11, written by Peter Selinger 2001-2013
</metadata>
<g transform="translate(0.000000,64.000000) scale(0.100000,-0.100000)"
fill="#000000" stroke="none">
<path d="M108 464 c-2 -80 0 -148 4 -150 3 -2 27 19 52 47 l46 51 0 -46 c0
-51 8 -56 35 -26 11 12 31 20 49 20 l30 0 -39 -40 -39 -40 27 0 c20 0 27 5 27
20 0 16 7 20 30 20 30 0 30 -1 30 -55 l0 -55 42 0 43 0 -90 -91 -90 -91 110 4
c87 2 117 7 144 23 58 34 76 68 76 142 0 61 -2 66 -36 97 -20 18 -41 35 -48
37 -8 3 1 19 23 42 32 34 36 44 36 92 0 43 -5 59 -26 85 -47 56 -66 60 -258
60 l-175 0 -3 -146z m207 -64 l18 -20 26 22 c24 21 24 20 -1 -7 l-28 -30 -27
28 c-15 15 -23 27 -17 27 6 0 19 -9 29 -20z m142 -132 c-2 -29 -3 -6 -3 52 0
58 1 81 3 53 2 -29 2 -77 0 -105z"/>
<path d="M223 243 c-7 -2 -13 -11 -13 -19 0 -10 13 -14 45 -14 37 0 45 3 45
18 0 14 -8 19 -32 19 -18 1 -39 -1 -45 -4z"/>
</g>
</svg>
